# xmcd
#
# Track frame offsets: 
#        150
#        26972
#        44333
#        76812
#        95738
#        114172
#        134038
#        159115
#        173880
#        190758
#        213176
#        233187
#
# Disc length: 3369 seconds
#
# Revision: 0
# Processed by: cddbd v1.5.2PL0 Copyright (c) Steve Scherf et al.
# Submitted via: ExactAudioCopy v0.99pb4
#
DISCID=990d270c
DTITLE=Mario Biondi - Handful Of Soul
DYEAR=1900
DGENRE=Blues
TTITLE0=A Child Runs Free
TTITLE1=No Mercy For Me
TTITLE2=This Is What You Are
TTITLE3=Rio De Janeiro Blue
TTITLE4=Slow Hot Wind
TTITLE5=A Handful Of Soul
TTITLE6=Never Die
TTITLE7=On A Clear Day (You Can See Forever)
TTITLE8=Gig
TTITLE9=I Can't Keep From Cryin' Sometimes
TTITLE10=No Trouble On The Mountain
TTITLE11=I'm Here Daddy
EXTD=
EXTT0=
EXTT1=
EXTT2=
EXTT3=
EXTT4=
EXTT5=
EXTT6=
EXTT7=
EXTT8=
EXTT9=
EXTT10=
EXTT11=
PLAYORDER=
